<?xml version="1.0" encoding="utf-8"?>
<!-- Generator: Adobe Illustrator 23.0.0, SVG Export Plug-In . SVG Version: 6.00 Build 0)  -->
<svg version="1.1" id="Layer_1" xmlns="http://www.w3.org/2000/svg" xmlns:xlink="http://www.w3.org/1999/xlink" x="0px" y="0px"
	 viewBox="0 0 286 94" style="enable-background:new 0 0 286 94;" xml:space="preserve">
<style type="text/css">
	.st0{fill:url(#SVGID_1_);}
	.st1{fill:url(#SVGID_2_);}
	.st2{fill:url(#SVGID_3_);}
	.st3{fill:#F0F0F0;}
	.st4{fill:#EDEDED;}
	.st5{fill:#EBEBEB;}
	.st6{fill:none;}
	.st7{fill:#A805AD;}
	.st8{font-family:'ArialMT';}
	.st9{font-size:61px;}
	.st10{fill:#B60AC9;}
</style>
<g>
	<g>
		
			<radialGradient id="SVGID_1_" cx="47" cy="49" r="45.5" gradientTransform="matrix(1 0 0 -1 0 96)" gradientUnits="userSpaceOnUse">
			<stop  offset="0.1256" style="stop-color:#7500AA"/>
			<stop  offset="1" style="stop-color:#000000"/>
		</radialGradient>
		<path class="st0" d="M47,92.5C21.9,92.5,1.5,72.1,1.5,47S21.9,1.5,47,1.5S92.5,21.9,92.5,47S72.1,92.5,47,92.5z"/>
		<radialGradient id="SVGID_2_" cx="47" cy="49" r="47" gradientTransform="matrix(1 0 0 -1 0 96)" gradientUnits="userSpaceOnUse">
			<stop  offset="0.1256" style="stop-color:#7500AA"/>
			<stop  offset="1" style="stop-color:#000000"/>
		</radialGradient>
		<path class="st1" d="M47,3c24.3,0,44,19.7,44,44S71.3,91,47,91S3,71.3,3,47S22.7,3,47,3 M47,0C21,0,0,21,0,47s21,47,47,47
			s47-21,47-47S73,0,47,0L47,0z"/>
	</g>
	
		<radialGradient id="SVGID_3_" cx="47" cy="49" r="27.3" gradientTransform="matrix(1 0 0 -1 0 96)" gradientUnits="userSpaceOnUse">
		<stop  offset="0.1256" style="stop-color:#7500AA"/>
		<stop  offset="1" style="stop-color:#000000"/>
	</radialGradient>
	<circle class="st2" cx="47" cy="47" r="27.3"/>
</g>
<g>
	<g>
		<path class="st3" d="M239,92.5c-25.1,0-45.5-20.4-45.5-45.5S213.9,1.5,239,1.5s45.5,20.4,45.5,45.5S264.1,92.5,239,92.5z"/>
		<path class="st4" d="M239,3c24.3,0,44,19.7,44,44s-19.7,44-44,44s-44-19.7-44-44S214.7,3,239,3 M239,0c-26,0-47,21-47,47
			s21,47,47,47s47-21,47-47S265,0,239,0L239,0z"/>
	</g>
	<ellipse transform="matrix(0.1735 -0.9848 0.9848 0.1735 151.2456 274.2205)" class="st5" cx="239" cy="47" rx="27.3" ry="27.3"/>
</g>
<g>
	<g>
		<path class="st3" d="M143,92.5c-25.1,0-45.5-20.4-45.5-45.5S117.9,1.5,143,1.5s45.5,20.4,45.5,45.5S168.1,92.5,143,92.5z"/>
		<path class="st4" d="M143,3c24.3,0,44,19.7,44,44s-19.7,44-44,44S99,71.3,99,47S118.7,3,143,3 M143,0c-26,0-47,21-47,47
			s21,47,47,47s47-21,47-47S169,0,143,0L143,0z"/>
	</g>
	<circle class="st5" cx="143" cy="47" r="27.3"/>
	<g>
		<rect x="126" y="27.4" class="st6" width="79.3" height="54"/>
		<text transform="matrix(1 0 0 1 125.9995 70.7096)" class="st7 st8 st9">7</text>
	</g>
	<g>
		<rect x="226.6" y="27.4" class="st6" width="79.3" height="54"/>
		<text transform="matrix(1 0 0 1 226.6495 70.7096)" class="st10 st8 st9">7</text>
	</g>
</g>
</svg>
